<svg width="128" height="128" viewBox="0 0 128 128" fill="none" xmlns="http://www.w3.org/2000/svg">
<path d="M49.384 4.61599C62.24 4.22799 82.728 6.49199 95.128 7.62399C101.596 8.21599 108.968 9.11599 115.52 10.34C121.669 11.4952 126.11 16.8872 126.064 23.144L125.532 101.844C125.511 105.15 124.047 108.281 121.523 110.416C118.999 112.551 115.667 113.476 112.404 112.948C108.248 112.272 103.74 111.876 99.028 111.84C90.7 120.544 73.812 126.24 53.3 126.24C24.724 126.24 3.02004 115.188 1.98404 100.332L1.93604 31.616C1.93604 16.828 22.068 5.64399 49.432 4.69199C49.4 4.64799 49.388 4.63199 49.384 4.61599ZM95.092 47.32C86.436 54.12 70.812 58.404 53.036 58.404C48.2991 58.4123 43.5674 58.0875 38.876 57.432C40.0464 58.0562 40.7703 59.2817 40.752 60.608L40.7 73.024C40.688 75.148 38.964 76.148 36.844 76.148C34.696 76.148 32.972 75.02 32.988 72.892L33.044 60.312C33.052 58.452 34.368 57.284 36.12 57.012C25.792 55.232 17.128 51.828 10.976 47.32L10.9818 47.7812C11.0435 52.7576 11.584 96.3755 11.584 99.008C11.584 104.6 19.92 110.648 32.816 113.92V113.84C32.82 111.716 34.54 110.96 36.664 110.96C38.816 110.96 40.536 111.724 40.524 113.856L40.516 115.444C44.508 116.028 48.8 116.352 53.3 116.352C77.18 116.352 94.96 107.196 94.96 99.008L94.9674 95.2267C94.9895 85.5673 95.056 60.7027 95.0817 51.1432L95.0873 49.0898C95.088 48.8066 95.0887 48.5544 95.0893 48.3354L95.092 47.32ZM36.808 83.976C38.932 83.976 40.652 85.1 40.6441 87.228L40.588 99.82C40.584 101.948 38.856 103.136 36.736 103.136C34.58 103.136 32.868 101.636 32.876 99.504L32.932 87.12C32.944 84.996 34.664 83.976 36.788 83.976H36.808ZM97.236 17.32C101.88 21.404 104.508 26.28 104.508 31.62L104.504 35.0341C104.504 35.3951 104.503 35.7815 104.503 36.1919L104.498 40.4904C104.497 41.0307 104.496 41.5903 104.495 42.1677L104.49 45.8338C104.49 46.4763 104.489 47.1336 104.488 47.8041L104.481 51.9735C104.474 56.2769 104.466 60.9457 104.456 65.6487L104.446 70.3509C104.409 86.7624 104.355 102.241 104.28 102.588C105.88 102.672 107.452 102.796 109 102.956C110.794 103.14 112.583 102.557 113.924 101.351C115.265 100.145 116.034 98.4277 116.04 96.624L116.444 25.184C116.464 21.988 114.14 19.28 110.98 18.82C106.556 18.18 101.808 17.68 97.236 17.32ZM53.3 14.052C29.428 14.052 11.588 23.216 11.584 31.404C11.584 39.588 29.424 48.744 53.3 48.744C77.18 48.744 95.012 39.588 95.012 31.404C95.012 23.216 77.18 14.052 53.3 14.052ZM45.208 24.7217C50.2179 23.3434 56.3902 23.3434 61.4 24.7217C66.4099 26.1001 69.496 28.6473 69.496 31.404C69.496 34.1607 66.4099 36.7079 61.4 38.0862C56.3902 39.4646 50.2179 39.4646 45.208 38.0862C40.1982 36.7079 37.112 34.1607 37.112 31.404C37.112 28.6473 40.1982 26.1001 45.208 24.7217Z" fill="white"/>
</svg>
