<svg xmlns="http://www.w3.org/2000/svg" width="145" height="32" viewBox="0 0 145 32">
  <defs>
    <radialGradient id="alex_logo_color-a" cx="-6.324%" cy="109.147%" r="485.605%" fx="-6.324%" fy="109.147%" gradientTransform="matrix(.22605 0 0 1 -.049 0)">
      <stop offset="0%" stop-color="#02E1B3"/>
      <stop offset="35%" stop-color="#0B54FF"/>
      <stop offset="43%" stop-color="#1152FF"/>
      <stop offset="54%" stop-color="#204BFF"/>
      <stop offset="66%" stop-color="#3B40FE"/>
      <stop offset="80%" stop-color="#5F31FE"/>
      <stop offset="93%" stop-color="#8E1EFD"/>
      <stop offset="100%" stop-color="#A714FD"/>
    </radialGradient>
    <radialGradient id="alex_logo_color-b" cx="108.824%" cy="100.229%" r="147.23%" fx="108.824%" fy="100.229%">
      <stop offset="0%" stop-color="#02E1B3"/>
      <stop offset="35%" stop-color="#0B54FF"/>
      <stop offset="43%" stop-color="#1152FF"/>
      <stop offset="54%" stop-color="#204BFF"/>
      <stop offset="66%" stop-color="#3B40FE"/>
      <stop offset="80%" stop-color="#5F31FE"/>
      <stop offset="93%" stop-color="#8E1EFD"/>
      <stop offset="100%" stop-color="#A714FD"/>
    </radialGradient>
  </defs>
  <g fill="none">
    <path fill="url(#alex_logo_color-a)" d="M62.6962692,26.1698329 C62.9956069,26.7747174 62.7501578,27.5077919 62.1469444,27.8104829 C61.9769059,27.8934065 61.7904571,27.9372032 61.6012818,27.9386587 C61.1362603,27.9392952 60.7108505,27.6769592 60.5026322,27.2611582 L50.904097,8.02380407 L41.2835889,27.2611582 C40.9802052,27.8679256 40.242382,28.1138667 39.6356146,27.8104829 C39.0288472,27.5070992 38.7829061,26.769276 39.0862898,26.1625086 L49.8054475,4.76081483 C50.0107554,4.34130427 50.437042,4.07532934 50.904097,4.07532934 C51.3711521,4.07532934 51.7974387,4.34130427 52.0027466,4.76081483 L62.6962692,26.1698329 Z M88.9613184,25.4923323 L68.7534905,25.4923323 L68.7534905,5.28816663 C68.7534905,4.61263225 68.2058617,4.06500343 67.5303273,4.06500343 C66.8547929,4.06500343 66.3071641,4.61263225 66.3071641,5.28816663 L66.3071641,26.7338064 C66.3071641,27.4093407 66.8547929,27.9569696 67.5303273,27.9569696 L88.9613184,27.9569696 C89.6368528,27.9569696 90.1844816,27.4093407 90.1844816,26.7338064 C90.1844816,26.058272 89.6368528,25.5106432 88.9613184,25.5106432 L88.9613184,25.4923323 Z M116.284733,25.4923323 L94.8500801,25.4923323 C94.1745458,25.4923323 93.626917,26.0399612 93.626917,26.7154955 C93.626917,27.3910299 94.1745458,27.9386587 94.8500801,27.9386587 L116.281071,27.9386587 C116.956606,27.9386587 117.504234,27.3910299 117.504234,26.7154955 C117.504234,26.0399612 116.956606,25.4923323 116.281071,25.4923323 L116.284733,25.4923323 Z M116.284733,4.06500343 L94.8500801,4.06500343 C94.1745457,4.06500343 93.6269169,4.61263225 93.6269169,5.28816663 C93.6269169,5.96370101 94.1745457,6.51132982 94.8500801,6.51132982 L116.281071,6.51132982 C116.956606,6.51132982 117.504234,5.96370101 117.504234,5.28816663 C117.504234,4.61263225 116.956606,4.06500343 116.281071,4.06500343 L116.284733,4.06500343 Z M116.284733,14.7768368 L94.8500801,14.7768368 C94.2222341,14.8365413 93.7427103,15.3638283 93.7427103,15.9945068 C93.7427103,16.6251852 94.2222341,17.1524722 94.8500801,17.2121767 L116.281071,17.2121767 C116.956606,17.2121767 117.504234,16.6645479 117.504234,15.9890135 C117.504234,15.3134791 116.956606,14.7658503 116.281071,14.7658503 L116.284733,14.7768368 Z M135.031357,13.8869306 L135.031357,13.8869306 C134.801238,13.6574466 134.671904,13.3458177 134.671904,13.0208286 C134.671904,12.6958394 134.801238,12.3842105 135.031357,12.1547265 L142.824445,4.39459831 C143.061921,4.15676988 143.386795,4.02713516 143.722766,4.03614056 C144.058737,4.04514596 144.3762,4.19199797 144.600595,4.44220645 C145.029217,4.95483797 144.987606,5.71184689 144.505379,6.17441062 L136.77821,13.9015793 C136.546204,14.1343058 136.230312,14.2638894 135.901707,14.2611769 C135.573103,14.2583782 135.259428,14.1235153 135.031357,13.8869306 L135.031357,13.8869306 Z M130.801556,13.8869306 L130.801556,13.8869306 C131.031676,13.6574466 131.161009,13.3458177 131.161009,13.0208286 C131.161009,12.6958394 131.031676,12.3842105 130.801556,12.1547265 L123.048753,4.41290913 C122.63511,3.98396702 121.976525,3.90585576 121.474022,4.2261387 C121.168497,4.42951004 120.970072,4.75898757 120.933201,5.12415318 C120.89633,5.48931879 121.024885,5.85181184 121.283589,6.11215381 L129.062028,13.8869306 C129.291799,14.1193043 129.605001,14.2500715 129.931792,14.2500715 C130.258583,14.2500715 130.571785,14.1193043 130.801556,13.8869306 L130.801556,13.8869306 Z M135.016709,18.0984207 L135.016709,18.0984207 C134.786589,18.3279048 134.657256,18.6395336 134.657256,18.9645228 C134.657256,19.2895119 134.786589,19.6011408 135.016709,19.8306249 L142.824445,27.6200504 C143.06551,27.8605843 143.395708,27.990097 143.736021,27.9775957 C144.076333,27.9650944 144.396138,27.811704 144.618906,27.5541314 C145.030026,27.0414099 144.982386,26.2998038 144.509041,25.8439002 L136.745251,18.0984207 C136.267722,17.6215931 135.494238,17.6215931 135.016709,18.0984207 L135.016709,18.0984207 Z M129.087663,18.0984207 L121.342184,25.8439002 C120.868839,26.2998038 120.821198,27.0414099 121.232319,27.5541314 C121.455086,27.811704 121.774891,27.9650944 122.115204,27.9775957 C122.455517,27.990097 122.785714,27.8605843 123.02678,27.6200504 L130.816205,19.8306249 C131.046325,19.6011408 131.175658,19.2895119 131.175658,18.9645228 C131.175658,18.6395336 131.046325,18.3279048 130.816205,18.0984207 L130.816205,18.0984207 C130.338676,17.6215931 129.565192,17.6215931 129.087663,18.0984207 L129.087663,18.0984207 Z"/>
    <path fill="url(#alex_logo_color-b)" d="M3.46074617,26.8656443 C2.94658873,26.2751115 2.47540445,25.6484976 2.05081254,24.9906157 L11.0414282,16 L2.05081254,7.01304646 C2.47599512,6.35209886 2.9471353,5.72187238 3.46074617,5.12703136 L14.3263905,16 L3.46074617,26.8656443 Z M0.867933165,9.18104829 C0.516792378,9.96316417 0.226617439,10.7712463 0,11.5980774 L4.39459831,15.9926757 L0,20.387274 C0.226629442,21.2129122 0.51680664,22.0197762 0.867933165,22.8006409 L7.69054704,16 L0.867933165,9.18104829 Z M16,17.6772717 L5.12703136,28.542916 C5.71957028,29.0550732 6.34734475,29.5249863 7.00572213,29.9491875 L16,20.9622339 L24.9906157,29.9491875 C25.6484374,29.525854 26.2750541,29.0558915 26.8656443,28.542916 L16,17.6772717 Z M22.8189517,31.1284047 L16,24.3131151 L9.18104829,31.1284047 C9.96307974,31.4807399 10.7711599,31.7721385 11.5980774,32 L15.9926757,27.6054017 L20.387274,32 C21.2193627,31.7734541 22.0324124,31.4820297 22.8189517,31.1284047 L22.8189517,31.1284047 Z M16,14.3263905 L26.8656443,3.46074617 C26.2751115,2.94658873 25.6484976,2.47540445 24.9906157,2.05081254 L16,11.0414282 L7.01304646,2.05081254 C6.35292568,2.47718506 5.7227797,2.94826506 5.12703136,3.46074617 L16,14.3263905 Z M31.1284047,22.8189517 C31.4813145,22.0384105 31.7727322,21.231502 32,20.4055848 L27.6054017,16.0109865 L32,11.6163882 C31.7730377,10.7832416 31.4816274,9.96900692 31.1284047,9.18104829 L24.3131151,16 L31.1284047,22.8189517 Z M20.9622339,16 L29.9491875,7.01304646 C29.5252713,6.35215203 29.0553524,5.72192231 28.542916,5.12703136 L17.6772717,16 L28.542916,26.8656443 C29.0558915,26.2750541 29.525854,25.6484374 29.9491875,24.9906157 L20.9622339,16 Z M16,7.69054704 L22.8189517,0.867933165 C22.0380871,0.51680664 21.231223,0.226629442 20.4055848,0 L16.0109865,4.39459831 L11.6163882,0 C10.7895571,0.226617439 9.981475,0.516792378 9.19935912,0.867933165 L16,7.69054704 Z"/>
  </g>
</svg>
