<svg xmlns="http://www.w3.org/2000/svg" width="145" height="32" viewBox="0 0 145 32">
  <path fill="#FFF" d="M62.6962692 26.1698329C62.9956069 26.7747174 62.7501578 27.5077919 62.1469444 27.8104829 61.9769059 27.8934065 61.7904571 27.9372032 61.6012818 27.9386587 61.1362603 27.9392952 60.7108505 27.6769592 60.5026322 27.2611582L50.904097 8.02380407 41.2835889 27.2611582C40.9802052 27.8679256 40.242382 28.1138667 39.6356146 27.8104829 39.0288472 27.5070992 38.7829061 26.769276 39.0862898 26.1625086L49.8054475 4.76081483C50.0107554 4.34130427 50.437042 4.07532934 50.904097 4.07532934 51.3711521 4.07532934 51.7974387 4.34130427 52.0027466 4.76081483L62.6962692 26.1698329zM88.9613184 25.4923323L68.7534905 25.4923323 68.7534905 5.28816663C68.7534905 4.61263225 68.2058617 4.06500343 67.5303273 4.06500343 66.8547929 4.06500343 66.3071641 4.61263225 66.3071641 5.28816663L66.3071641 26.7338064C66.3071641 27.4093407 66.8547929 27.9569696 67.5303273 27.9569696L88.9613184 27.9569696C89.6368528 27.9569696 90.1844816 27.4093407 90.1844816 26.7338064 90.1844816 26.058272 89.6368528 25.5106432 88.9613184 25.5106432L88.9613184 25.4923323zM116.284733 25.4923323L94.8500801 25.4923323C94.1745458 25.4923323 93.626917 26.0399612 93.626917 26.7154955 93.626917 27.3910299 94.1745458 27.9386587 94.8500801 27.9386587L116.281071 27.9386587C116.956606 27.9386587 117.504234 27.3910299 117.504234 26.7154955 117.504234 26.0399612 116.956606 25.4923323 116.281071 25.4923323L116.284733 25.4923323zM116.284733 4.06500343L94.8500801 4.06500343C94.1745457 4.06500343 93.6269169 4.61263225 93.6269169 5.28816663 93.6269169 5.96370101 94.1745457 6.51132982 94.8500801 6.51132982L116.281071 6.51132982C116.956606 6.51132982 117.504234 5.96370101 117.504234 5.28816663 117.504234 4.61263225 116.956606 4.06500343 116.281071 4.06500343L116.284733 4.06500343zM116.284733 14.7768368L94.8500801 14.7768368C94.2222341 14.8365413 93.7427103 15.3638283 93.7427103 15.9945068 93.7427103 16.6251852 94.2222341 17.1524722 94.8500801 17.2121767L116.281071 17.2121767C116.956606 17.2121767 117.504234 16.6645479 117.504234 15.9890135 117.504234 15.3134791 116.956606 14.7658503 116.281071 14.7658503L116.284733 14.7768368zM135.031357 13.8869306L135.031357 13.8869306C134.801238 13.6574466 134.671904 13.3458177 134.671904 13.0208286 134.671904 12.6958394 134.801238 12.3842105 135.031357 12.1547265L142.824445 4.39459831C143.061921 4.15676988 143.386795 4.02713516 143.722766 4.03614056 144.058737 4.04514596 144.3762 4.19199797 144.600595 4.44220645 145.029217 4.95483797 144.987606 5.71184689 144.505379 6.17441062L136.77821 13.9015793C136.546204 14.1343058 136.230312 14.2638894 135.901707 14.2611769 135.573103 14.2583782 135.259428 14.1235153 135.031357 13.8869306L135.031357 13.8869306zM130.801556 13.8869306L130.801556 13.8869306C131.031676 13.6574466 131.161009 13.3458177 131.161009 13.0208286 131.161009 12.6958394 131.031676 12.3842105 130.801556 12.1547265L123.048753 4.41290913C122.63511 3.98396702 121.976525 3.90585576 121.474022 4.2261387 121.168497 4.42951004 120.970072 4.75898757 120.933201 5.12415318 120.89633 5.48931879 121.024885 5.85181184 121.283589 6.11215381L129.062028 13.8869306C129.291799 14.1193043 129.605001 14.2500715 129.931792 14.2500715 130.258583 14.2500715 130.571785 14.1193043 130.801556 13.8869306L130.801556 13.8869306zM135.016709 18.0984207L135.016709 18.0984207C134.786589 18.3279048 134.657256 18.6395336 134.657256 18.9645228 134.657256 19.2895119 134.786589 19.6011408 135.016709 19.8306249L142.824445 27.6200504C143.06551 27.8605843 143.395708 27.990097 143.736021 27.9775957 144.076333 27.9650944 144.396138 27.811704 144.618906 27.5541314 145.030026 27.0414099 144.982386 26.2998038 144.509041 25.8439002L136.745251 18.0984207C136.267722 17.6215931 135.494238 17.6215931 135.016709 18.0984207L135.016709 18.0984207zM129.087663 18.0984207L121.342184 25.8439002C120.868839 26.2998038 120.821198 27.0414099 121.232319 27.5541314 121.455086 27.811704 121.774891 27.9650944 122.115204 27.9775957 122.455517 27.990097 122.785714 27.8605843 123.02678 27.6200504L130.816205 19.8306249C131.046325 19.6011408 131.175658 19.2895119 131.175658 18.9645228 131.175658 18.6395336 131.046325 18.3279048 130.816205 18.0984207L130.816205 18.0984207C130.338676 17.6215931 129.565192 17.6215931 129.087663 18.0984207L129.087663 18.0984207zM3.46074617 26.8656443C2.94658873 26.2751115 2.47540445 25.6484976 2.05081254 24.9906157L11.0414282 16 2.05081254 7.01304646C2.47599512 6.35209886 2.9471353 5.72187238 3.46074617 5.12703136L14.3263905 16 3.46074617 26.8656443zM.867933165 9.18104829C.516792378 9.96316417.226617439 10.7712463 0 11.5980774L4.39459831 15.9926757 0 20.387274C.226629442 21.2129122.51680664 22.0197762.867933165 22.8006409L7.69054704 16 .867933165 9.18104829zM16 17.6772717L5.12703136 28.542916C5.71957028 29.0550732 6.34734475 29.5249863 7.00572213 29.9491875L16 20.9622339 24.9906157 29.9491875C25.6484374 29.525854 26.2750541 29.0558915 26.8656443 28.542916L16 17.6772717zM22.8189517 31.1284047L16 24.3131151 9.18104829 31.1284047C9.96307974 31.4807399 10.7711599 31.7721385 11.5980774 32L15.9926757 27.6054017 20.387274 32C21.2193627 31.7734541 22.0324124 31.4820297 22.8189517 31.1284047L22.8189517 31.1284047zM16 14.3263905L26.8656443 3.46074617C26.2751115 2.94658873 25.6484976 2.47540445 24.9906157 2.05081254L16 11.0414282 7.01304646 2.05081254C6.35292568 2.47718506 5.7227797 2.94826506 5.12703136 3.46074617L16 14.3263905zM31.1284047 22.8189517C31.4813145 22.0384105 31.7727322 21.231502 32 20.4055848L27.6054017 16.0109865 32 11.6163882C31.7730377 10.7832416 31.4816274 9.96900692 31.1284047 9.18104829L24.3131151 16 31.1284047 22.8189517zM20.9622339 16L29.9491875 7.01304646C29.5252713 6.35215203 29.0553524 5.72192231 28.542916 5.12703136L17.6772717 16 28.542916 26.8656443C29.0558915 26.2750541 29.525854 25.6484374 29.9491875 24.9906157L20.9622339 16zM16 7.69054704L22.8189517.867933165C22.0380871.51680664 21.231223.226629442 20.4055848 0L16.0109865 4.39459831 11.6163882 0C10.7895571.226617439 9.981475.516792378 9.19935912.867933165L16 7.69054704z"/>
</svg>
