<svg width="64" height="64" viewBox="0 0 64 64" fill="none" xmlns="http://www.w3.org/2000/svg">
<g clip-path="url(#clip0_3133_13523)">
<path fill-rule="evenodd" clip-rule="evenodd" d="M47.2329 54.0279C59.3425 53.6443 64 45.6991 64 45.6991C64 28.0552 56.1096 13.7539 56.1096 13.7539C48.2192 7.83607 40.7123 8.00046 40.7123 8.00046L39.9452 8.87717C49.2603 11.7265 53.589 15.8361 53.589 15.8361C47.8904 12.7128 42.3014 11.1785 37.0959 10.5758C33.1507 10.1374 29.3699 10.247 26.0274 10.6854L25.0959 10.795C23.1781 10.9594 18.5205 11.6717 12.6575 14.247C10.6301 15.1785 9.42466 15.8361 9.42466 15.8361C9.42466 15.8361 13.9726 11.5073 23.8356 8.65799L23.2877 8.00046C23.2877 8.00046 15.7808 7.83607 7.89041 13.7539C7.89041 13.7539 0 28.0552 0 45.6991C0 45.6991 4.60274 53.6443 16.7123 54.0279C16.7123 54.0279 18.7397 51.5621 20.3836 49.4799C13.4247 47.3977 10.7945 43.0142 10.7945 43.0142L12.3288 43.9457L12.5479 44.11L12.7626 44.2333L12.8265 44.2607L13.0411 44.384C14.411 45.1511 15.7808 45.7539 17.0411 46.247C19.2877 47.1237 21.9726 48.0005 25.0959 48.6032C29.2055 49.3703 34.0274 49.6443 39.2877 48.658C41.863 48.2196 44.4932 47.4525 47.2329 46.3018C49.1507 45.5895 51.2877 44.5484 53.5342 43.0689C53.5342 43.0689 50.7945 47.5621 43.6164 49.5895C45.2603 51.6717 47.2329 54.0279 47.2329 54.0279ZM21.7534 28.4388C18.6301 28.4388 16.1644 31.1785 16.1644 34.521C16.1644 37.8635 18.6849 40.6032 21.7534 40.6032C24.8767 40.6032 27.3425 37.8635 27.3425 34.521C27.3973 31.1785 24.8767 28.4388 21.7534 28.4388ZM41.7534 28.4388C38.6301 28.4388 36.1644 31.1785 36.1644 34.521C36.1644 37.8635 38.6849 40.6032 41.7534 40.6032C44.8767 40.6032 47.3425 37.8635 47.3425 34.521C47.3425 31.1785 44.8767 28.4388 41.7534 28.4388Z" fill="url(#paint0_linear_3133_13523)"/>
</g>
<defs>
<linearGradient id="paint0_linear_3133_13523" x1="0" y1="8" x2="64" y2="54" gradientUnits="userSpaceOnUse">
<stop stop-color="#3D8BD7"/>
<stop offset="0.489583" stop-color="#2950F5"/>
<stop offset="1" stop-color="#643CF4"/>
</linearGradient>
<clipPath id="clip0_3133_13523">
<rect width="64" height="64" fill="white"/>
</clipPath>
</defs>
</svg>
