<svg width="64" height="64" viewBox="0 0 64 64" fill="none" xmlns="http://www.w3.org/2000/svg">
<path fill-rule="evenodd" clip-rule="evenodd" d="M64 56C64 60.4183 60.4183 64 56 64H8C3.58172 64 0 60.4183 0 56V8C0 3.58172 3.58172 0 8 0H56C60.4183 0 64 3.58172 64 8V56ZM53.2533 48.936V48.2187L49.928 44.9547C49.6347 44.7307 49.488 44.3627 49.5493 43.9973V20.0027C49.488 19.6373 49.6347 19.2693 49.928 19.0453L53.3333 15.7813V15.064H41.5413L33.136 36.032L23.5733 15.064H11.2053V15.7813L15.1893 20.5787C15.5787 20.9333 15.7787 21.4507 15.7253 21.9733V40.832C15.8427 41.512 15.6267 42.208 15.1493 42.704L10.6667 48.1387V48.856H23.376V48.1387L18.8933 42.704C18.4107 42.208 18.184 41.5173 18.2747 40.832V24.5227L29.4293 48.856H30.7253L40.3067 24.5227V43.9173C40.3067 44.4347 40.3067 44.536 39.968 44.8747L36.5227 48.2187V48.936H53.2533Z" fill="url(#paint0_linear_3133_13510)"/>
<defs>
<linearGradient id="paint0_linear_3133_13510" x1="0" y1="0" x2="76.596" y2="39.5936" gradientUnits="userSpaceOnUse">
<stop stop-color="#3D8BD7"/>
<stop offset="0.489583" stop-color="#2950F5"/>
<stop offset="1" stop-color="#643CF4"/>
</linearGradient>
</defs>
</svg>
