<svg width="64" height="64" viewBox="0 0 64 64" fill="none" xmlns="http://www.w3.org/2000/svg">
<path d="M53.4733 13.553C55.6996 9.41847 53.1552 4.01172 53.1552 4.01172C47.4304 4.01172 43.2958 7.82822 43.2958 7.82822C41.0695 6.55603 33.7545 6.55603 33.7545 6.55603C33.7545 6.55603 26.4395 6.55603 24.2132 7.82822C24.2132 7.82822 20.0786 4.01172 14.3538 4.01172C14.3538 4.01172 11.8095 9.41847 14.0358 13.553C14.0358 13.553 8.94709 18.3237 10.8553 28.5011C12.6485 38.0647 21.0327 40.5868 26.4395 40.5868C26.4395 40.5868 24.2131 42.495 24.5312 45.6755C24.5312 45.6755 21.3508 47.5837 18.1703 46.3115C14.9899 45.0393 13.3996 41.8589 13.3996 41.8589C13.3996 41.8589 10.2192 37.7243 7.03877 39.3145C7.03877 39.3145 6.08465 40.2687 9.58315 41.8589C9.58315 41.8589 12.1275 45.6754 13.0816 47.9017C14.0358 50.128 19.1245 52.0363 24.2132 50.7641V58.0791C24.2132 58.0791 24.2132 58.7152 22.941 59.0332C21.6688 59.3513 21.6688 59.9873 22.305 59.9873H45.2041C45.8401 59.9873 45.8401 59.3513 44.568 59.0332C43.2958 58.7152 43.2958 58.0791 43.2958 58.0791V50.7641C43.2958 50.7641 43.3238 46.9497 43.2958 45.6754C43.2259 42.4799 41.0695 40.5867 41.0695 40.5867C46.4763 40.5867 54.8605 38.0647 56.6536 28.501C58.562 18.3237 53.4733 13.553 53.4733 13.553Z" fill="url(#paint0_linear_3133_13527)"/>
<defs>
<linearGradient id="paint0_linear_3133_13527" x1="6.91992" y1="4.01172" x2="69.5553" y2="33.0261" gradientUnits="userSpaceOnUse">
<stop stop-color="#3D8BD7"/>
<stop offset="0.489583" stop-color="#2950F5"/>
<stop offset="1" stop-color="#643CF4"/>
</linearGradient>
</defs>
</svg>
