<svg width="64" height="64" viewBox="0 0 64 64" fill="none" xmlns="http://www.w3.org/2000/svg">
<g clip-path="url(#clip0_3133_13529)">
<path d="M64 12.1525C61.6453 13.1978 59.1147 13.9018 56.4587 14.2191C59.1707 12.5951 61.2533 10.0218 62.232 6.95512C59.696 8.45912 56.8853 9.55245 53.8933 10.1418C51.5013 7.58978 48.0853 5.99512 44.3093 5.99512C35.832 5.99512 29.6027 13.9045 31.5173 22.1151C20.608 21.5684 10.9333 16.3418 4.456 8.39778C1.016 14.2991 2.672 22.0191 8.51733 25.9284C6.368 25.8591 4.34133 25.2698 2.57333 24.2858C2.42933 30.3684 6.78933 36.0591 13.104 37.3258C11.256 37.8271 9.232 37.9444 7.17333 37.5498C8.84267 42.7658 13.6907 46.5604 19.44 46.6671C13.92 50.9951 6.96533 52.9285 0 52.1071C5.81067 55.8325 12.7147 58.0058 20.128 58.0058C44.5067 58.0058 58.28 37.4164 57.448 18.9498C60.0133 17.0964 62.24 14.7845 64 12.1525V12.1525Z" fill="url(#paint0_linear_3133_13529)"/>
</g>
<defs>
<linearGradient id="paint0_linear_3133_13529" x1="0" y1="5.99512" x2="69.1039" y2="49.9502" gradientUnits="userSpaceOnUse">
<stop stop-color="#3D8BD7"/>
<stop offset="0.489583" stop-color="#2950F5"/>
<stop offset="1" stop-color="#643CF4"/>
</linearGradient>
<clipPath id="clip0_3133_13529">
<rect width="64" height="64" fill="white"/>
</clipPath>
</defs>
</svg>
