<?xml version="1.0" encoding="utf-8"?>
<!-- Generator: Adobe Illustrator 24.0.1, SVG Export Plug-In . SVG Version: 6.00 Build 0)  -->
<svg version="1.1" id="Layer_1" xmlns="http://www.w3.org/2000/svg" xmlns:xlink="http://www.w3.org/1999/xlink" x="0px" y="0px"
	 viewBox="0 0 24 24" style="enable-background:new 0 0 24 24;" xml:space="preserve">
<style type="text/css">
	.st0{fill:#FFFFFF;}
</style>
<path class="st0" d="M15,12c0,1.7-1.3,3-3,3s-3-1.3-3-3s1.3-3,3-3S15,10.3,15,12z M24,11.6c0,0-4.3,7.4-12,7.4c-7.2,0-12-7.4-12-7.4
	S4.4,5,12,5C19.7,5,24,11.6,24,11.6z M17,12c0-2.8-2.2-5-5-5c-2.8,0-5,2.2-5,5c0,2.8,2.2,5,5,5C14.8,17,17,14.8,17,12z"/>
</svg>
