<svg xmlns="http://www.w3.org/2000/svg" width="24" height="24" viewBox="0 0 24 24">
  <path fill="#FFF" fill-rule="evenodd" d="M4.5,17 C5.32842712,17 6,17.6715729 6,18.5 C6,19.3284271 5.32842712,20 4.5,20 C3.67157288,20 3,19.3284271 3,18.5 C3,17.6715729 3.67157288,17 4.5,17 Z M11.5,17 C12.3284271,17 13,17.6715729 13,18.5 C13,19.3284271 12.3284271,20 11.5,20 C10.6715729,20 10,19.3284271 10,18.5 C10,17.6715729 10.6715729,17 11.5,17 Z M18.5,17 C19.3284271,17 20,17.6715729 20,18.5 C20,19.3284271 19.3284271,20 18.5,20 C17.6715729,20 17,19.3284271 17,18.5 C17,17.6715729 17.6715729,17 18.5,17 Z M4.5,10 C5.32842712,10 6,10.6715729 6,11.5 C6,12.3284271 5.32842712,13 4.5,13 C3.67157288,13 3,12.3284271 3,11.5 C3,10.6715729 3.67157288,10 4.5,10 Z M11.5,10 C12.3284271,10 13,10.6715729 13,11.5 C13,12.3284271 12.3284271,13 11.5,13 C10.6715729,13 10,12.3284271 10,11.5 C10,10.6715729 10.6715729,10 11.5,10 Z M18.5,10 C19.3284271,10 20,10.6715729 20,11.5 C20,12.3284271 19.3284271,13 18.5,13 C17.6715729,13 17,12.3284271 17,11.5 C17,10.6715729 17.6715729,10 18.5,10 Z M4.5,3 C5.32842712,3 6,3.67157288 6,4.5 C6,5.32842712 5.32842712,6 4.5,6 C3.67157288,6 3,5.32842712 3,4.5 C3,3.67157288 3.67157288,3 4.5,3 Z M11.5,3 C12.3284271,3 13,3.67157288 13,4.5 C13,5.32842712 12.3284271,6 11.5,6 C10.6715729,6 10,5.32842712 10,4.5 C10,3.67157288 10.6715729,3 11.5,3 Z M18.5,3 C19.3284271,3 20,3.67157288 20,4.5 C20,5.32842712 19.3284271,6 18.5,6 C17.6715729,6 17,5.32842712 17,4.5 C17,3.67157288 17.6715729,3 18.5,3 Z"/>
</svg>
