<svg width="64" height="64" viewBox="0 0 64 64" fill="none" xmlns="http://www.w3.org/2000/svg">
<path fill-rule="evenodd" clip-rule="evenodd" d="M64 32C64 49.6731 49.6731 64 32 64C14.3269 64 0 49.6731 0 32C0 14.3269 14.3269 0 32 0C49.6731 0 64 14.3269 64 32ZM34.8671 22.8439L13.318 31.7225C9.52605 33.2023 11.7457 34.5896 11.7457 34.5896C11.7457 34.5896 14.9827 35.6994 17.7573 36.5318C20.5318 37.3641 22.0116 36.4393 22.0116 36.4393L35.0521 27.6532C39.6763 24.5087 38.5665 27.0983 37.4567 28.2081C35.0521 30.6127 31.0752 34.4046 27.7457 37.4566C26.2659 38.7514 27.0058 39.8613 27.6532 40.4162C29.5353 42.0087 33.9668 44.9043 35.9814 46.2206C36.5408 46.5861 36.9139 46.8299 36.9943 46.8902C37.4567 47.2601 40.0463 48.9248 41.6185 48.5549C43.1908 48.185 43.3758 46.0578 43.3758 46.0578L45.6879 31.5376C45.8934 30.1763 46.0988 28.8436 46.2904 27.6009C46.7888 24.3685 47.1934 21.7445 47.2602 20.8092C47.5376 17.6647 44.2081 18.9595 44.2081 18.9595C44.2081 18.9595 36.9943 21.9191 34.8671 22.8439Z" fill="url(#paint0_linear_3228_13623)"/>
<defs>
<linearGradient id="paint0_linear_3228_13623" x1="0" y1="0" x2="76.596" y2="39.5936" gradientUnits="userSpaceOnUse">
<stop stop-color="#3D8BD7"/>
<stop offset="0.489583" stop-color="#2950F5"/>
<stop offset="1" stop-color="#643CF4"/>
</linearGradient>
</defs>
</svg>
